<?xml version="1.0" standalone="no"?>
<!DOCTYPE svg PUBLIC "-//W3C//DTD SVG 20010904//EN"
 "http://www.w3.org/TR/2001/REC-SVG-20010904/DTD/svg10.dtd">
<svg version="1.0" xmlns="http://www.w3.org/2000/svg"
 width="300.000000pt" height="240.000000pt" viewBox="0 0 300.000000 240.000000"
 preserveAspectRatio="xMidYMid meet">
<metadata>
Created by potrace 1.10, written by Peter Selinger 2001-2011
</metadata>
<g transform="translate(0.000000,240.000000) scale(0.100000,-0.100000)"
fill="#000000" stroke="none">
<path d="M661 2370 c-175 -63 -310 -214 -346 -387 -21 -100 -21 -1466 0 -1566
43 -203 242 -391 428 -403 l62 -4 -71 18 c-40 10 -98 31 -130 47 -73 36 -192
151 -226 220 -51 101 -56 150 -56 597 0 227 -1 418 -2 423 -1 6 -2 12 -1 15 1
3 3 149 5 325 l2 320 27 69 c61 156 204 287 345 317 113 23 123 27 67 28 -27
0 -74 -9 -104 -19z"/>
<path d="M2250 2375 c36 -8 72 -18 80 -22 16 -7 26 -10 38 -12 19 -3 115 -71
157 -112 54 -52 93 -112 126 -194 23 -59 24 -69 29 -448 3 -213 3 -387 -1
-387 -3 0 -95 91 -205 203 -192 193 -201 204 -212 256 -23 101 -121 206 -227
242 -22 7 -45 17 -52 22 -15 11 -167 10 -190 -1 -106 -51 -157 -80 -171 -97
-17 -20 -17 -20 6 -1 12 11 22 14 22 7 0 -10 28 -46 70 -90 9 -9 47 -52 85
-96 39 -44 79 -89 90 -101 11 -11 58 -63 105 -114 128 -140 150 -163 156 -158
2 3 -108 131 -245 284 l-250 279 37 22 c104 63 250 71 355 19 205 -100 278
-357 156 -546 -21 -33 -39 -64 -39 -69 0 -11 -36 -42 -46 -40 -5 1 -35 -10
-68 -26 -58 -27 -142 -43 -203 -37 -28 3 -54 27 -187 178 l-153 175 4 47 c7
62 36 146 69 195 21 33 28 37 38 26 7 -8 113 -126 236 -264 123 -137 229 -256
236 -264 8 -8 16 -13 18 -10 3 3 -13 25 -36 49 -22 25 -57 65 -77 90 -36 45
-237 273 -279 316 -7 8 -11 14 -8 14 3 0 -15 19 -39 41 -25 23 -42 45 -39 50
6 10 -25 0 -43 -14 -37 -28 -80 -139 -91 -234 -8 -68 27 -25 -301 -368 -58
-60 -152 -158 -209 -216 l-103 -106 -30 -119 c-30 -117 -31 -120 -80 -163
l-50 -44 22 -23 22 -23 51 44 c28 25 61 45 73 45 13 0 23 5 23 10 0 30 -89
-11 -128 -58 -8 -11 -15 -13 -22 -6 -7 7 6 26 39 57 45 43 50 53 62 118 7 38
16 72 21 75 4 3 8 19 8 35 0 31 6 39 178 217 67 69 159 165 360 375 36 37 68
67 71 67 3 0 34 -30 67 -67 34 -38 93 -104 133 -147 63 -70 85 -106 64 -106
-3 0 -32 27 -64 60 l-57 60 -187 -171 c-102 -94 -184 -173 -182 -175 2 -2 26
17 53 43 86 84 276 258 295 271 16 11 24 8 59 -25 74 -68 77 -62 -105 -200 -5
-5 -24 -19 -41 -33 -16 -14 -43 -34 -58 -45 -41 -29 -125 -95 -146 -114 -10
-9 -59 -45 -108 -81 -52 -38 -89 -71 -86 -78 2 -7 -1 -10 -7 -7 -5 4 -16 1
-24 -5 -8 -6 -20 -8 -26 -4 -8 4 -9 3 -5 -4 4 -7 1 -12 -6 -13 -24 -2 -63 -8
-90 -15 -16 -3 -28 -2 -28 3 0 9 55 63 64 63 3 0 31 26 63 58 32 32 67 65 78
73 11 8 40 37 65 63 25 27 -32 -20 -127 -105 -94 -85 -172 -160 -172 -168 -1
-10 11 -12 57 -6 89 10 128 23 160 53 16 15 37 32 45 37 9 6 91 69 183 140
423 329 428 333 446 324 43 -23 198 1 266 42 18 10 39 19 46 19 13 0 56 41 56
54 0 4 14 28 31 53 36 51 67 145 67 198 0 20 3 39 6 42 4 4 91 -79 194 -183
l188 -189 -2 -370 c-1 -345 -3 -374 -22 -435 -28 -85 -71 -153 -137 -215 -48
-46 -155 -114 -155 -99 0 4 -6 1 -14 -6 -43 -35 -112 -40 -601 -40 l-480 0
-230 230 c-126 126 -234 230 -240 230 -5 0 96 -106 225 -235 l235 -235 525 2
c525 3 525 3 583 26 165 67 294 226 328 406 5 27 9 361 9 760 0 784 -1 793
-62 909 -76 146 -245 265 -385 273 l-68 4 65 -15z"/>
<path d="M2182 1616 c-22 -29 -66 -81 -98 -115 -31 -33 -52 -61 -48 -61 14 0
26 12 89 85 33 39 62 72 65 75 3 3 14 18 24 33 32 51 10 39 -32 -17z"/>
<path d="M1910 1353 c-25 -15 -72 -38 -105 -50 -51 -20 -54 -23 -21 -18 41 7
149 59 167 82 16 18 10 17 -41 -14z"/>
</g>
</svg>
