<?xml version="1.0" standalone="no"?>
<!DOCTYPE svg PUBLIC "-//W3C//DTD SVG 20010904//EN"
 "http://www.w3.org/TR/2001/REC-SVG-20010904/DTD/svg10.dtd">
<svg version="1.0" xmlns="http://www.w3.org/2000/svg"
 width="63.000000pt" height="50.000000pt" viewBox="0 0 63.000000 50.000000"
 preserveAspectRatio="xMidYMid meet">
<metadata>
Created by potrace 1.10, written by Peter Selinger 2001-2011
</metadata>
<g transform="translate(0.000000,50.000000) scale(0.100000,-0.100000)"
fill="#000000" stroke="none">
<path d="M144 491 c-43 -11 -49 -16 -68 -55 -23 -49 -23 -323 0 -372 19 -39
23 -42 65 -54 26 -8 29 -7 19 5 -7 8 -18 15 -25 15 -6 0 -20 9 -31 21 -17 18
-19 41 -22 176 -2 85 -1 165 2 178 7 29 51 75 71 75 8 0 17 5 20 10 3 6 5 10
3 9 -2 -1 -17 -4 -34 -8z"/>
<path d="M460 490 c0 -5 10 -12 22 -16 49 -15 68 -55 68 -140 0 -64 -1 -66
-18 -51 -29 26 -35 20 -13 -12 17 -24 21 -44 21 -113 0 -89 -7 -104 -65 -136
-19 -11 -18 -11 8 -12 30 0 63 28 77 66 6 14 10 93 10 176 0 118 -3 157 -16
184 -9 19 -21 37 -26 40 -19 12 -68 22 -68 14z"/>
<path d="M338 387 c-14 -12 -29 -33 -33 -47 -6 -24 -5 -24 9 -6 8 10 17 23 19
29 1 5 27 -14 56 -44 63 -65 65 -51 2 16 -35 37 -41 49 -30 56 37 23 101 -8
113 -56 7 -29 -15 -79 -39 -89 -34 -13 -54 -5 -84 31 l-31 38 -67 -68 c-43
-42 -72 -80 -80 -104 -12 -38 -11 -39 35 -85 25 -27 51 -48 57 -48 5 1 -13 23
-42 49 -51 48 -56 61 -23 61 9 0 50 25 91 55 58 43 82 55 111 55 25 0 45 8 61
23 28 26 42 63 28 71 -6 4 -8 12 -5 20 3 7 -7 25 -22 39 -34 35 -88 36 -126 4z
m2 -126 c0 -15 -134 -123 -138 -111 -6 17 108 130 124 123 8 -3 14 -8 14 -12z"/>
<path d="M447 323 c-4 -3 -7 -11 -7 -17 0 -6 5 -5 12 2 6 6 9 14 7 17 -3 3 -9
2 -12 -2z"/>
<path d="M385 270 c-3 -5 -2 -10 4 -10 5 0 13 5 16 10 3 6 2 10 -4 10 -5 0
-13 -4 -16 -10z"/>
</g>
</svg>
